# File created by Blade
# Date/Time:  Thu Sep 25 19:32:06 2014
# Frame Rate: 120.000 fps
#------------------------------------------------------
:FULLY-SPECIFIED
:DEGREES
1980
root 6.514416 31.635470 -2.941035 3.111718 -15.987425 -11.507341
Spine -15.734146 6.910226 -40.052950
Head 8.708958 30.346634 -12.417844
LeftShoulder -6.575963 23.865487 3.916557
LeftArm 14.017350 23.335422 -55.947925
LeftForeArm 6.525703 -0.000000 9.143798
LeftHand -26.020658 0.000000 -7.756936
LeftHandThumb1 -26.253704 0.000000 33.147579
RightShoulder -18.805658 23.780762 -52.934408
RightArm 25.721069 39.199633 16.099579
RightForeArm 28.469167 -0.000000 31.251333
RightHand 5.466165 -0.000000 -3.505112
RightHandThumb1 -24.326973 -0.000000 -32.862282
LeftUpLeg -17.927360 5.801401 4.567938
LeftLeg 41.479751 -0.000000 -0.000000
LeftFoot -33.374942 15.153469 -19.153866
LeftToeBase 10.136840 -0.000000 -0.000000
RightUpLeg 10.238346 -0.490443 26.012308
RightLeg -0.968831 -0.000000 0.000000
RightFoot -7.516479 -0.153173 -3.351304
RightToeBase -3.164957 -0.000000 0.000000
1981
root 6.514694 31.633359 -2.940721 3.118811 -15.939303 -11.543146
Spine -15.709138 6.940738 -40.064899
Head 8.740214 30.559405 -12.429582
LeftShoulder -6.542624 23.816053 3.906416
LeftArm 14.050139 23.431970 -55.957883
LeftForeArm 6.559559 0.000000 9.164903
LeftHand -26.094067 -0.000000 -7.973732
LeftHandThumb1 -26.253704 0.000000 33.147579
RightShoulder -18.812738 23.879398 -53.012330
RightArm 25.808127 39.134915 16.223463
RightForeArm 28.495003 -0.000000 31.305392
RightHand 5.551063 -0.000000 -3.508731
RightHandThumb1 -24.326973 -0.000000 -32.862282
LeftUpLeg -17.942937 5.671936 4.599137
LeftLeg 41.508383 -0.000000 -0.000000
LeftFoot -33.421666 15.240216 -19.168652
LeftToeBase 10.130015 -0.000000 -0.000000
RightUpLeg 10.213972 -0.574057 26.029211
RightLeg -0.942752 -0.000000 0.000000
RightFoot -7.531930 -0.038716 -3.273279
RightToeBase -3.162400 -0.000000 0.000000
1982
root 6.514977 31.631476 -2.940770 3.130649 -15.884598 -11.587154
Spine -15.681828 6.958219 -40.061255
Head 8.754004 30.743671 -12.448369
LeftShoulder -6.527833 23.734405 3.900685
LeftArm 14.065906 23.503961 -55.984103
LeftForeArm 6.627061 -0.000000 9.166208
LeftHand -26.010787 -0.000000 -8.132729
LeftHandThumb1 -26.253704 0.000000 33.147579
RightShoulder -18.810511 23.926492 -53.048968
RightArm 25.934637 39.145812 16.365413
RightForeArm 28.554616 -0.000000 31.385306
RightHand 5.504013 -0.000000 -3.538876
RightHandThumb1 -24.326973 -0.000000 -32.862282
LeftUpLeg -17.963830 5.541620 4.640399
LeftLeg 41.537482 -0.000000 -0.000000
LeftFoot -33.468733 15.287724 -19.222083
LeftToeBase 10.165046 -0.000000 -0.000000
RightUpLeg 10.186537 -0.638912 26.061789
RightLeg -0.920417 -0.000000 0.000000
RightFoot -7.550724 0.043626 -3.261766
RightToeBase -3.160032 -0.000000 0.000000
1983
root 6.514401 31.628514 -2.940892 3.140898 -15.830967 -11.648907
Spine -15.645987 6.994841 -40.037355
Head 8.760996 30.909065 -12.464582
LeftShoulder -6.500392 23.697016 3.894541
LeftArm 14.111679 23.517804 -56.018871
LeftForeArm 6.686996 -0.000000 9.158014
LeftHand -25.905300 -0.000000 -7.860506
LeftHandThumb1 -26.253704 0.000000 33.147579
RightShoulder -18.799910 23.953992 -53.054971
RightArm 26.024349 39.118021 16.432406
RightForeArm 28.512424 0.000000 31.477687
RightHand 5.537761 -0.000000 -3.711478
RightHandThumb1 -24.326973 -0.000000 -32.862282
LeftUpLeg -17.987941 5.432818 4.698019
LeftLeg 41.596068 -0.000000 -0.000000
LeftFoot -33.438512 15.389529 -19.116933
LeftToeBase 9.950960 -0.000000 -0.000000
RightUpLeg 10.187724 -0.659832 26.119867
RightLeg -0.943636 -0.000000 0.000000
RightFoot -7.537928 0.090894 -3.204865
RightToeBase -3.108719 -0.000000 0.000000
1984
root 6.516606 31.626457 -2.941694 3.154714 -15.766096 -11.683878
Spine -15.601279 7.006312 -40.043552
Head 8.735148 31.088090 -12.480527
LeftShoulder -6.492326 23.647717 3.878116
LeftArm 14.161796 23.595902 -56.027967
LeftForeArm 6.644093 -0.000000 9.136746
LeftHand -25.934004 -0.000000 -7.702871
LeftHandThumb1 -26.253704 0.000000 33.147579
RightShoulder -18.828154 23.989184 -53.090759
RightArm 26.201206 39.171698 16.665001
RightForeArm 28.542900 -0.000000 31.552320
RightHand 5.548990 -0.000000 -3.512634
RightHandThumb1 -24.326973 -0.000000 -32.862282
LeftUpLeg -18.021781 5.306502 4.730613
LeftLeg 41.632568 -0.000000 -0.000000
LeftFoot -33.561483 15.379137 -19.291963
LeftToeBase 10.197782 -0.000000 -0.000000
RightUpLeg 10.141112 -0.745473 26.148876
RightLeg -0.898716 -0.000000 0.000000
RightFoot -7.568519 0.132843 -3.240375
RightToeBase -3.115417 -0.000000 0.000000
1985
root 6.517487 31.622908 -2.939697 3.152908 -15.706345 -11.748734
Spine -15.546246 7.039497 -39.999980
Head 8.729738 31.262632 -12.511272
LeftShoulder -6.470624 23.656447 3.858559
LeftArm 14.213336 23.533244 -56.068385
LeftForeArm 6.525880 -0.000000 9.158613
LeftHand -25.941554 -0.000000 -8.003222
LeftHandThumb1 -26.253704 0.000000 33.147579
RightShoulder -18.820978 23.950861 -53.048738
RightArm 26.384655 39.226938 16.760646
RightForeArm 28.514376 -0.000000 31.549439
RightHand 5.597873 -0.000000 -3.591604
RightHandThumb1 -24.326973 -0.000000 -32.862282
LeftUpLeg -18.028436 5.190165 4.791816
LeftLeg 41.680796 -0.000000 -0.000000
LeftFoot -33.621501 15.421165 -19.331786
LeftToeBase 10.155586 -0.000000 -0.000000
RightUpLeg 10.125371 -0.871358 26.200245
RightLeg -0.861957 -0.000000 0.000000
RightFoot -7.595619 0.196427 -3.283818
RightToeBase -3.107593 -0.000000 0.000000
1986
root 6.520888 31.621540 -2.938452 3.174684 -15.632895 -11.767622
Spine -15.525612 7.036633 -40.028951
Head 8.753408 31.416188 -12.467041
LeftShoulder -6.438483 23.642316 3.874881
LeftArm 14.229400 23.568856 -56.105946
LeftForeArm 6.508828 0.000000 9.193585
LeftHand -25.914649 0.000000 -8.190010
LeftHandThumb1 -26.253704 0.000000 33.147579
RightShoulder -18.787506 23.887392 -52.997847
RightArm 26.462218 39.251419 16.812337
RightForeArm 28.619027 -0.000000 31.620195
RightHand 5.621473 -0.000000 -3.224436
RightHandThumb1 -24.326973 -0.000000 -32.862282
LeftUpLeg -18.069694 5.031060 4.797534
LeftLeg 41.707394 -0.000000 -0.000000
LeftFoot -33.653565 15.525451 -19.374671
LeftToeBase 10.171426 -0.000000 -0.000000
RightUpLeg 10.072958 -0.963943 26.210239
RightLeg -0.832451 -0.000000 0.000000
RightFoot -7.615720 0.237058 -3.312611
RightToeBase -3.144285 -0.000000 0.000000
1987
root 6.521882 31.618222 -2.937437 3.174348 -15.563164 -11.827164
Spine -15.461692 7.051752 -39.990877
Head 8.742275 31.572719 -12.479456
LeftShoulder -6.421891 23.622915 3.861293
LeftArm 14.256080 23.589847 -56.143614
LeftForeArm 6.468814 -0.000000 9.199474
LeftHand -25.899948 -0.000000 -8.057668
LeftHandThumb1 -26.253704 0.000000 33.147579
RightShoulder -18.772561 23.915384 -52.998216
RightArm 26.618316 39.280631 16.948760
RightForeArm 28.559699 -0.000000 31.577767
RightHand 5.564553 -0.000000 -3.309457
RightHandThumb1 -24.326973 -0.000000 -32.862282
LeftUpLeg -18.083028 4.881079 4.852582
LeftLeg 41.754702 -0.000000 -0.000000
LeftFoot -33.709628 15.608938 -19.397249
LeftToeBase 10.105352 -0.000000 -0.000000
RightUpLeg 10.048888 -1.062859 26.262703
RightLeg -0.794356 -0.000000 0.000000
RightFoot -7.634845 0.273633 -3.368834
RightToeBase -3.162885 -0.000000 0.000000
1988
root 6.522228 31.615810 -2.934970 3.173818 -15.500931 -11.879596
Spine -15.406163 7.075974 -39.971841
Head 8.738850 31.702589 -12.466082
LeftShoulder -6.412523 23.644548 3.865144
LeftArm 14.321245 23.553822 -56.158952
LeftForeArm 6.313945 -0.000000 9.198805
LeftHand -25.818954 0.000000 -7.933558
LeftHandThumb1 -26.253704 0.000000 33.147579
RightShoulder -18.782307 23.950815 -53.022430
RightArm 26.685027 39.204296 17.032329
RightForeArm 28.564574 -0.000000 31.564546
RightHand 5.637947 -0.000000 -3.164059
RightHandThumb1 -24.326973 -0.000000 -32.862282
LeftUpLeg -18.083770 4.839894 4.905843
LeftLeg 41.789361 -0.000000 -0.000000
LeftFoot -33.730792 15.555825 -19.347621
LeftToeBase 10.232918 -0.000000 -0.000000
RightUpLeg 10.024655 -1.178729 26.302105
RightLeg -0.751079 -0.000000 0.000000
RightFoot -7.647445 0.355643 -3.369688
RightToeBase -3.199385 -0.000000 0.000000
1989
root 6.524587 31.614377 -2.931654 3.178224 -15.452691 -11.910515
Spine -15.383350 7.110273 -39.995035
Head 8.786542 31.810529 -12.398002
LeftShoulder -6.374668 23.624421 3.878083
LeftArm 14.331228 23.604328 -56.180300
LeftForeArm 6.302627 0.000000 9.185007
LeftHand -25.894235 0.000000 -7.856535
LeftHandThumb1 -26.253704 0.000000 33.147579
RightShoulder -18.775077 23.997389 -53.035039
RightArm 26.727530 39.076682 17.076515
RightForeArm 28.448265 -0.000000 31.525639
RightHand 5.611055 -0.000000 -3.302834
RightHandThumb1 -24.326973 -0.000000 -32.862282
LeftUpLeg -18.098911 4.715541 4.928338
LeftLeg 41.815331 -0.000000 -0.000000
LeftFoot -33.783768 15.666259 -19.437787
LeftToeBase 10.125273 -0.000000 -0.000000
RightUpLeg 10.002226 -1.245389 26.328457
RightLeg -0.718135 -0.000000 0.000000
RightFoot -7.665694 0.352200 -3.449842
RightToeBase -3.188355 -0.000000 0.000000
1990
root 6.525715 31.611834 -2.928171 3.183660 -15.403523 -11.955860
Spine -15.364465 7.153355 -39.995399
Head 8.875623 31.884767 -12.313565
LeftShoulder -6.325710 23.583013 3.892524
LeftArm 14.308513 23.655918 -56.212610
LeftForeArm 6.284578 0.000000 9.147597
LeftHand -25.888244 -0.000000 -7.962460
LeftHandThumb1 -26.253704 0.000000 33.147579
RightShoulder -18.751794 24.037990 -53.063323
RightArm 26.753911 38.972241 17.146555
RightForeArm 28.369007 -0.000000 31.512634
RightHand 5.550056 -0.000000 -3.251360
RightHandThumb1 -24.326973 -0.000000 -32.862282
LeftUpLeg -18.115765 4.639645 4.951454
LeftLeg 41.857005 -0.000000 -0.000000
LeftFoot -33.868255 15.730682 -19.551366
LeftToeBase 10.173923 -0.000000 -0.000000
RightUpLeg 9.971929 -1.330210 26.367765
RightLeg -0.665544 -0.000000 0.000000
RightFoot -7.686319 0.377430 -3.522772
RightToeBase -3.250734 -0.000000 0.000000
1991
root 6.525640 31.610008 -2.925766 3.187487 -15.359076 -12.003506
Spine -15.333986 7.177267 -39.993611
Head 8.915276 31.986438 -12.237476
LeftShoulder -6.300001 23.582036 3.910729
LeftArm 14.313816 23.630174 -56.247466
LeftForeArm 6.255971 0.000000 9.131925
LeftHand -25.883986 -0.000000 -7.961764
LeftHandThumb1 -26.253704 0.000000 33.147579
RightShoulder -18.741994 24.023256 -53.025014
RightArm 26.875448 38.932146 17.214048
RightForeArm 28.308023 -0.000000 31.417334
RightHand 5.572123 -0.000000 -3.247652
RightHandThumb1 -24.326973 -0.000000 -32.862282
LeftUpLeg -18.134337 4.520135 5.006224
LeftLeg 41.909839 -0.000000 -0.000000
LeftFoot -33.864040 15.802035 -19.509118
LeftToeBase 10.113448 -0.000000 -0.000000
RightUpLeg 9.944434 -1.410913 26.409214
RightLeg -0.614778 -0.000000 0.000000
RightFoot -7.708322 0.416240 -3.560603
RightToeBase -3.241254 -0.000000 0.000000
